<svg xmlns="http://www.w3.org/2000/svg" width="435.374" height="411.291" viewBox="0 0 435.374 411.291">
  <g id="Group_67" data-name="Group 67" transform="translate(64.86 -228.49)">
    <g id="Group_66" data-name="Group 66">
      <g id="Group_47" data-name="Group 47" transform="translate(15.599 251.365)">
        <g id="Group_46" data-name="Group 46">
          <path id="Path_15" data-name="Path 15" d="M238.8,76.909A144.185,144.185,0,1,0,382.989,221.093,144.184,144.184,0,0,0,238.8,76.909Zm0,253.588a109.4,109.4,0,1,1,109.4-109.4A109.527,109.527,0,0,1,238.8,330.5Z" transform="translate(-94.62 -76.909)" fill="#fff"/>
        </g>
      </g>
      <path id="Exclusion_3" data-name="Exclusion 3" d="M975.416,42.778A96.665,96.665,0,0,1,878.86-53.778a96.665,96.665,0,0,1,96.556-96.556,96.666,96.666,0,0,1,96.557,96.556A96.665,96.665,0,0,1,975.416,42.778Zm-36.15-63.284-.671,17.89a83.71,83.71,0,0,0,14.816,4.25A83.309,83.309,0,0,0,968.9,3.087c14.245,0,25.7-3.1,34.048-9.225a29.394,29.394,0,0,0,12.579-24.88,28.481,28.481,0,0,0-6.82-19.12c-4.526-5.268-12.916-10.76-24.935-16.325-9.052-4.229-15.09-7.766-17.947-10.511a14.654,14.654,0,0,1-3.228-4.416,11.855,11.855,0,0,1-1.076-4.976,10.894,10.894,0,0,1,1.314-5.339,12.313,12.313,0,0,1,3.942-4.165,19.345,19.345,0,0,1,6.121-2.684,31.87,31.87,0,0,1,7.856-.894,66.435,66.435,0,0,1,14.815,1.678,71.241,71.241,0,0,1,14.257,4.919l.895-17.331a98.069,98.069,0,0,0-14.48-3.3,97.432,97.432,0,0,0-14.145-1.062c-12.614,0-22.846,2.8-30.414,8.33s-11.4,12.882-11.4,21.86a26.283,26.283,0,0,0,6.708,17.89c4.453,5.046,12.8,10.576,24.823,16.437,8.978,4.378,14.772,7.99,17.22,10.735a14.346,14.346,0,0,1,3.69,9.84,15.157,15.157,0,0,1-1.551,6.919,15.041,15.041,0,0,1-4.654,5.325,22.072,22.072,0,0,1-7.282,3.4,36.285,36.285,0,0,1-9.435,1.132,61.4,61.4,0,0,1-14.927-1.957,77.23,77.23,0,0,1-15.6-5.871h0Z" transform="translate(-815.86 448.51)" fill="#fff"/>
      <g id="Group_51" data-name="Group 51" transform="translate(320.66 228.49)">
        <g id="Group_50" data-name="Group 50">
          <path id="Path_17" data-name="Path 17" d="M494.14,229.157V53.947a3.938,3.938,0,0,0-7.076-2.38,165.827,165.827,0,0,0-33.692,100.2v64.1a13.311,13.311,0,0,0,13.311,13.311h5.549c-5.47,56.5-9.085,135.519-9.085,144.771,0,14.577,8.972,26.393,20.039,26.393s20.039-11.817,20.039-26.393C503.226,364.688,499.611,285.656,494.14,229.157Z" transform="translate(-453.372 -50.008)" fill="#fff"/>
        </g>
      </g>
      <g id="Group_53" data-name="Group 53" transform="translate(-64.86 244.19)">
        <g id="Group_52" data-name="Group 52">
          <path id="Path_18" data-name="Path 18" d="M58.178,197.189a38.312,38.312,0,0,0,18.5-32.811L71.187,74.564a6.49,6.49,0,0,0-12.959.719L61.8,147.314a7.331,7.331,0,1,1-14.662,0l-1.785-72a7.015,7.015,0,0,0-14.026,0l-1.785,72a7.331,7.331,0,1,1-14.662,0l3.572-72.031A6.489,6.489,0,0,0,5.5,74.564L0,164.378a38.311,38.311,0,0,0,18.5,32.811,21.684,21.684,0,0,1,10.311,20.933C22.553,274.549,18.3,366.671,18.3,376.705c0,14.577,8.972,26.393,20.039,26.393s20.039-11.817,20.039-26.393c0-10.035-4.253-102.156-10.513-158.583A21.692,21.692,0,0,1,58.178,197.189Z" transform="translate(0 -68.471)" fill="#fff"/>
        </g>
      </g>
    </g>
    <text id="Sentra_Wisata_Kuliner" data-name="Sentra Wisata Kuliner" transform="translate(-64.86 628.781)" fill="#fff" font-size="44" font-family="Roboto-Medium, Roboto" font-weight="500"><tspan x="0" y="0">Sentra Wisata Kuliner</tspan></text>
  </g>
</svg>
